<svg xmlns="http://www.w3.org/2000/svg" viewBox="0 0 1200 630" width="1200" height="630">
  <defs>
    <linearGradient id="og-bg" x1="0" y1="0" x2="1" y2="1">
      <stop offset="0%" stop-color="#0A1A26"/>
      <stop offset="55%" stop-color="#102838"/>
      <stop offset="100%" stop-color="#1B3F50"/>
    </linearGradient>
    <radialGradient id="og-glow" cx="20%" cy="50%" r="45%">
      <stop offset="0%" stop-color="#3FE48B" stop-opacity="0.22"/>
      <stop offset="100%" stop-color="#3FE48B" stop-opacity="0"/>
    </radialGradient>
    <linearGradient id="og-play" x1="0" y1="0" x2="1" y2="1">
      <stop offset="0%" stop-color="#5DEDA0"/>
      <stop offset="100%" stop-color="#3FE48B"/>
    </linearGradient>
    <filter id="og-glow-f" x="-50%" y="-50%" width="200%" height="200%">
      <feGaussianBlur stdDeviation="9" result="b"/>
      <feMerge><feMergeNode in="b"/><feMergeNode in="SourceGraphic"/></feMerge>
    </filter>
  </defs>
  <rect width="1200" height="630" fill="url(#og-bg)"/>
  <rect width="1200" height="630" fill="url(#og-glow)"/>
  <g transform="translate(100 195) scale(1.9)">
    <g transform="translate(64 64)" fill="none" stroke="#3FE48B" stroke-width="2" opacity="0.85">
      <ellipse rx="44" ry="18" transform="rotate(0)"/>
      <ellipse rx="44" ry="18" transform="rotate(60)"/>
      <ellipse rx="44" ry="18" transform="rotate(120)"/>
    </g>
    <g fill="#3FE48B">
      <circle cx="108" cy="64" r="3.5"/>
      <circle cx="42" cy="25" r="3.5"/>
      <circle cx="42" cy="103" r="3.5"/>
      <circle cx="86" cy="25" r="3.5"/>
      <circle cx="86" cy="103" r="3.5"/>
    </g>
    <g filter="url(#og-glow-f)">
      <circle cx="64" cy="64" r="20" fill="url(#og-play)"/>
    </g>
    <path d="M58 52 L58 76 L80 64 Z" fill="#0A1A26"/>
  </g>
  <text x="460" y="285" font-family="Inter, sans-serif" font-size="82" font-weight="800" letter-spacing="-2.5" fill="#F0F6F9">ITSWEBER</text>
  <text x="460" y="375" font-family="Inter, sans-serif" font-size="82" font-weight="800" letter-spacing="-2.5" fill="#3FE48B">Play</text>
  <text x="464" y="425" font-family="Inter, sans-serif" font-size="22" fill="#A8C9D5">Die Video-Plattform mit Atom-DNA.</text>
  <text x="464" y="455" font-family="Inter, sans-serif" font-size="22" fill="#A8C9D5">Self-hosted. Open Source. 100 % dir.</text>
  <text x="466" y="525" font-family="ui-monospace, monospace" font-size="14" letter-spacing="4" fill="#3FE48B">POWERED BY ITSWEBER · ITSWEBER.DE</text>
</svg>
